<?xml version="1.0" encoding="UTF-8" standalone="no"?>
<svg
   viewBox="0 0 620 160"
   role="img"
   aria-labelledby="title desc"
   version="1.1"
   id="svg11"
   sodipodi:docname="flaechenklar_logo_final.svg"
   xmlns:inkscape="http://www.inkscape.org/namespaces/inkscape"
   xmlns:sodipodi="http://sodipodi.sourceforge.net/DTD/sodipodi-0.dtd"
   xmlns="http://www.w3.org/2000/svg"
   xmlns:svg="http://www.w3.org/2000/svg">
  <sodipodi:namedview
     id="namedview11"
     pagecolor="#ffffff"
     bordercolor="#000000"
     borderopacity="0.25"
     inkscape:showpageshadow="2"
     inkscape:pageopacity="0.0"
     inkscape:pagecheckerboard="0"
     inkscape:deskcolor="#d1d1d1" />
  <title
     id="title">FlächenKlar Logo</title>
  <desc
     id="desc">Modernisiertes FlächenKlar Logo mit Grundriss-Icon, dunkelblauer Wortmarke und türkisem Klar-Akzent.</desc>
  <defs
     id="defs5">
    <linearGradient
       id="fk-mark-bg"
       x1="20"
       y1="20"
       x2="140"
       y2="140"
       gradientUnits="userSpaceOnUse">
      <stop
         offset="0"
         stop-color="#1D4778"
         id="stop1" />
      <stop
         offset="0.55"
         stop-color="#173965"
         id="stop2" />
      <stop
         offset="1"
         stop-color="#0F294B"
         id="stop3" />
    </linearGradient>
    <linearGradient
       id="fk-accent"
       x1="34"
       y1="26"
       x2="114"
       y2="106"
       gradientUnits="userSpaceOnUse">
      <stop
         offset="0"
         stop-color="#58D6CA"
         id="stop4" />
      <stop
         offset="1"
         stop-color="#20AFA3"
         id="stop5" />
    </linearGradient>
    <pattern
       id="fk-grid"
       width="12"
       height="12"
       patternUnits="userSpaceOnUse">
      <path
         d="M 12 0 L 0 0 0 12"
         fill="none"
         stroke="#FFFFFF"
         stroke-opacity="0.055"
         stroke-width="1"
         id="path5" />
    </pattern>
    <filter
       id="fk-soft-shadow"
       x="-20%"
       y="-20%"
       width="140%"
       height="140%"
       color-interpolation-filters="sRGB">
      <feDropShadow
         dx="0"
         dy="8"
         stdDeviation="8"
         flood-color="#0F294B"
         flood-opacity="0.18" />
    </filter>
  </defs>
  <g
     id="icon">
    <rect
       x="20"
       y="20"
       width="120"
       height="120"
       rx="28"
       fill="url(#fk-mark-bg)"
       id="rect5" />
    <rect
       x="20"
       y="20"
       width="120"
       height="120"
       rx="28"
       fill="url(#fk-grid)"
       id="rect6" />
    <!-- floor-plan body -->
    <path
       d="M48 53 H98 V84 H78 V106 H48 Z"
       fill="#FFFFFF"
       fill-opacity="0.10"
       stroke="#FFFFFF"
       stroke-width="7"
       stroke-linejoin="round"
       id="path6" />
    <!-- refined inner wall hints -->
    <path
       d="M78 84 H98 M78 84 V106"
       fill="none"
       stroke="#FFFFFF"
       stroke-width="4"
       stroke-linecap="round"
       stroke-opacity="0.62"
       id="path7" />
    <!-- measurement accents -->
    <path
       d="M48 39 H98 M48 34 V44 M98 34 V44"
       fill="none"
       stroke="url(#fk-accent)"
       stroke-width="4"
       stroke-linecap="round"
       id="path8" />
    <path
       d="M112 53 V84 M107 53 H117 M107 84 H117"
       fill="none"
       stroke="url(#fk-accent)"
       stroke-width="4"
       stroke-linecap="round"
       id="path9" />
    <!-- small clarity point -->
    <circle
       cx="112"
       cy="106"
       r="5"
       fill="#58D6CA"
       id="circle9" />
  </g>
  <g
     id="wordmark">
    <g
       id="text10"
       style="font-weight:800;font-size:56px;font-family:'Inter Display', Inter, '-apple-system', BlinkMacSystemFont, 'Segoe UI', Arial, sans-serif;letter-spacing:-1.6;fill:#173965"
       aria-label="FlächenKlar">
      <path
         d="m 170.625,89 h 9.84375 V 73.386719 h 18.34766 v -8.09375 H 180.46875 V 56.625 h 19.57812 V 48.257812 H 170.625 Z m 41.00156,-40.742188 h -9.40625 V 89 h 9.40625 z m 12.48203,41.234375 c 4.07422,0 6.67188,-1.421875 8.39453,-4.539062 h 0.10938 V 89 H 241.8 V 69.558594 c 0,-6.371094 -4.62109,-10.0625 -13.01563,-10.0625 -8.36718,0 -13.09765,3.71875 -13.50781,9.980468 h 8.75 c 0.19141,-1.96875 1.80469,-3.226562 4.42969,-3.226562 2.48828,0 4.01953,1.175781 4.01953,2.898437 v 0.136719 c 0,1.722656 -1.88672,2.132813 -7.05469,2.570313 -6.15234,0.492187 -11.21093,2.597656 -11.21093,9.078125 0,5.742187 4.1289,8.558593 9.89843,8.558593 z m 10.52735,-32.292968 c 2.84375,0 4.92187,-1.96875 4.92187,-4.703125 0,-2.707032 -2.07812,-4.675782 -4.92187,-4.675782 -2.8711,0 -4.94922,1.96875 -4.94922,4.675782 0,2.734375 2.07812,4.703125 4.94922,4.703125 z m -12.4961,0 c 2.8711,0 4.94922,-1.96875 4.94922,-4.703125 0,-2.707032 -2.07812,-4.675782 -4.94922,-4.675782 -2.84375,0 -4.92187,1.96875 -4.92187,4.675782 0,2.734375 2.07812,4.703125 4.92187,4.703125 z m 4.83985,26.140625 c -2.29688,0 -3.85547,-1.066407 -3.85547,-2.84375 0,-1.886719 1.80469,-2.925782 4.32031,-3.308594 2.32422,-0.382813 4.10156,-0.738281 5.11328,-1.203125 v 2.625 c 0,2.84375 -2.43359,4.730469 -5.57812,4.730469 z m 32.19687,6.316406 c 8.17578,0 13.97266,-5.03125 14.16406,-12.085938 h -9.10547 c -0.35547,2.816407 -2.07812,4.621094 -4.86718,4.621094 -3.5,0 -5.57813,-2.898437 -5.57813,-7.628906 0,-4.730469 2.05078,-7.628906 5.57813,-7.628906 2.78906,0 4.59375,1.777343 4.89453,4.539062 h 9.07812 c -0.41015,-7.082031 -6.125,-12.003906 -14.16406,-12.003906 -8.94141,0 -14.92969,6.125 -14.92969,15.09375 0,8.996094 5.98828,15.09375 14.92969,15.09375 z m 25.90781,-16.351563 c 0,-3.9375 1.91407,-5.769531 4.89453,-5.769531 2.98047,0 4.70313,1.859375 4.70313,5.277344 V 89 h 9.40625 V 70.84375 c 0,-7.109375 -3.66406,-11.347656 -9.92578,-11.347656 -4.23828,0 -7.13672,1.914062 -9.07813,5.085937 V 48.257812 h -9.40625 V 89 h 9.40625 z m 36.32579,16.351563 c 7.30078,0 13.125,-4.074219 14.1914,-9.898438 h -8.44922 C 326.46875,81.671875 324.5,82.875 321.73828,82.875 c -3.71875,0 -5.90625,-2.324219 -6.01562,-5.988281 h 20.09765 V 74.34375 c 0,-8.75 -5.98828,-14.875 -14.65625,-14.875 -8.55859,0 -14.6289,6.289062 -14.6289,15.09375 0,8.804687 6.01562,15.09375 14.875,15.09375 z m -5.63282,-18.402344 c 0.41016,-3.035156 2.46094,-4.839844 5.63282,-4.839844 3.14453,0 5.22265,1.804688 5.63281,4.839844 z m 31.78672,2.050781 c 0,-3.9375 1.91406,-5.769531 4.89453,-5.769531 2.98047,0 4.70312,1.859375 4.70312,5.277344 V 89 h 9.40625 V 70.84375 c 0,-7.109375 -3.66406,-11.347656 -9.92578,-11.347656 -4.34765,0 -7.27344,1.996093 -9.1875,5.304687 V 60.125 h -9.29687 V 89 h 9.40625 z"
         id="path12" />
      <path
         style="fill:#20afa3"
         d="m 370.21797,89 h 9.84375 V 78.636719 L 385.22969,72.457031 395.70235,89 h 11.26562 l -15.3125,-23.1875 14.73828,-17.554688 h -11.5664 l -9.10547,11.15625 c -1.88672,2.351563 -3.77344,4.675782 -5.66016,7.027344 V 48.257812 h -9.84375 z m 47.34531,-40.742188 h -9.40625 V 89 h 9.40625 z m 12.48204,41.234375 c 4.07422,0 6.67187,-1.421875 8.39453,-4.539062 h 0.10937 V 89 h 9.1875 V 69.558594 c 0,-6.371094 -4.62109,-10.0625 -13.01562,-10.0625 -8.36719,0 -13.09766,3.71875 -13.50781,9.980468 h 8.75 c 0.1914,-1.96875 1.80468,-3.226562 4.42968,-3.226562 2.48829,0 4.01954,1.175781 4.01954,2.898437 v 0.136719 c 0,1.722656 -1.88672,2.132813 -7.05469,2.570313 -6.15235,0.492187 -11.21094,2.597656 -11.21094,9.078125 0,5.742187 4.12891,8.558593 9.89844,8.558593 z m 2.87109,-6.152343 c -2.29687,0 -3.85547,-1.066407 -3.85547,-2.84375 0,-1.886719 1.80469,-2.925782 4.32032,-3.308594 2.32421,-0.382813 4.10156,-0.738281 5.11328,-1.203125 v 2.625 c 0,2.84375 -2.4336,4.730469 -5.57813,4.730469 z M 451.38672,89 h 9.40625 V 74.207031 c 0,-4.101562 2.32422,-6.453125 5.6875,-6.453125 1.36719,0 3.03515,0.05469 3.71875,0.08203 v -7.765625 c -0.76563,-0.02734 -1.5586,-0.05469 -2.57031,-0.05469 -3.85547,0 -6.01563,1.53125 -7.05469,5.195312 h -0.082 V 60.125 h -9.10547 z"
         id="path13" />
    </g>
    <path
       d="M170 106 H518"
       stroke="url(#fk-accent)"
       stroke-width="5"
       stroke-linecap="round"
       opacity="0.95"
       id="path10" />
    <path
       d="M170 118 H326"
       stroke="#173965"
       stroke-width="3"
       stroke-linecap="round"
       opacity="0.16"
       id="path11" />
  </g>
</svg>
